<svg class="img-fluid" id="outputsvg" xmlns="http://www.w3.org/2000/svg" style="transform: matrix(1.44804, 0, 0, 1.44804, 0, 0); transform-origin: 50% 50%; cursor: move; max-height: 363.94px; transition: transform 200ms ease-in-out;" width="1210" height="408" viewBox="0 0 12100 4080"><g id="l64Sbm2qepYqRVYsqNp78eM" fill="rgb(22,28,37)" style="transform: none;"><g style="transform: none;"><path id="pz83AyVKb" d="M 523 3666 c -53 -17 -113 -54 -113 -70 0 -7 9 -21 19 -30 19 -17 21 -17 58 8 54 38 104 49 153 36 79 -21 77 -95 -4 -124 -23 -8 -66 -22 -98 -30 -72 -20 -108 -60 -108 -118 0 -108 115 -166 242 -122 25 8 53 23 62 33 15 17 15 20 -2 41 l -19 23 -31 -23 c -45 -33 -119 -38 -154 -10 -36 27 -38 73 -5 94 12 8 49 22 82 31 122 34 174 87 161 161 -18 93 -124 137 -243 100 z "></path><path id="p1E85TBJZF" d="M 1008 3673 c -15 -4 -18 -17 -18 -86 0 -78 -2 -86 -40 -151 -22 -38 -65 -104 -96 -148 l -54 -78 43 0 44 0 69 104 69 103 65 -103 c 36 -57 72 -107 82 -109 9 -3 28 -3 42 1 l 25 6 -68 101 c -122 184 -123 184 -119 279 3 87 0 93 -44 81 z "></path><path id="pvpHDjMQ5" d="M 1310 3444 l 0 -235 37 3 c 35 3 44 12 159 161 67 87 123 159 125 162 2 2 4 -72 4 -163 l 0 -167 33 -3 32 -3 0 53 c 0 29 1 136 2 238 l 3 185 -25 3 c -22 2 -43 -21 -160 -172 l -135 -174 -3 174 -2 174 -35 0 -35 0 0 -236 z "></path><path id="pKBwuFGfn" d="M 1776 3671 c -3 -5 20 -62 51 -127 31 -66 77 -168 103 -229 44 -103 49 -110 77 -113 16 -2 35 3 41 10 12 15 202 448 202 461 0 4 -16 7 -35 7 -34 0 -37 -3 -62 -60 l -26 -60 -119 0 -120 0 -26 60 c -23 52 -30 60 -54 60 -15 0 -29 -4 -32 -9 z  m 324 -177 c 0 -4 -18 -49 -40 -100 -22 -52 -40 -99 -40 -104 0 -6 -4 -8 -10 -5 -5 3 -10 13 -10 22 0 8 -18 53 -40 100 -22 47 -40 87 -40 89 0 2 41 4 90 4 50 0 90 -3 90 -6 z "></path><path id="pAz1uBggJ" d="M 2320 3445 l 0 -235 123 0 c 108 0 127 3 161 23 52 30 78 79 73 137 -5 61 -25 100 -66 127 -29 20 -47 23 -127 23 l -94 0 0 80 0 80 -35 0 -35 0 0 -235 z  m 261 -14 c 31 -32 38 -71 18 -115 -15 -33 -56 -46 -140 -46 l -69 0 0 95 0 95 81 0 c 76 0 82 -2 110 -29 z "></path><path id="pcoyl3wmb" d="M 2880 3474 l 0 -206 -72 4 -73 3 -3 -32 -3 -33 186 0 186 0 -3 33 -3 32 -72 3 -73 3 0 199 0 200 -35 0 -35 0 0 -206 z "></path><path id="pu7RkXZtw" d="M 3189 3485 c 0 -107 -1 -212 -2 -232 0 -36 2 -38 31 -41 l 32 -3 0 235 0 236 -30 0 -30 0 -1 -195 z "></path><path id="pX4WhUiDY" d="M 3485 3661 c -159 -73 -188 -290 -54 -405 87 -74 210 -72 309 3 24 19 24 20 6 40 -24 26 -27 26 -72 -4 -72 -49 -147 -42 -208 20 -86 86 -58 246 51 291 64 27 107 18 185 -38 15 -11 21 -9 40 9 27 28 17 42 -55 78 -62 31 -143 33 -202 6 z "></path><path id="p82AnaVwx" d="M 4029 3676 c -2 -2 -4 -109 -3 -236 l 0 -232 130 1 c 102 2 136 6 163 20 49 24 73 62 78 118 6 58 -23 109 -74 133 -18 8 -31 21 -28 27 2 7 29 46 60 86 30 41 55 77 55 80 0 4 -18 7 -40 7 -39 0 -41 -2 -96 -84 -49 -73 -60 -84 -91 -89 -19 -4 -48 -3 -64 0 l -29 6 0 83 0 84 -28 0 c -16 0 -31 -2 -33 -4 z  m 277 -269 c 24 -28 30 -60 18 -92 -12 -30 -60 -45 -149 -45 l -85 0 0 86 0 86 96 -4 c 91 -3 97 -5 120 -31 z "></path><path id="pkld3yfy9" d="M 4494 3671 c -2 -2 -4 -107 -4 -233 l 0 -228 175 0 175 0 0 24 c 0 14 -6 28 -12 33 -7 4 -71 8 -143 9 l -130 1 0 64 0 64 123 3 122 3 0 29 0 30 -122 0 -123 0 3 70 4 70 132 0 c 73 0 135 2 138 5 2 3 3 17 1 32 l -5 28 -165 0 c -90 0 -167 -2 -169 -4 z "></path><path id="p1FJe1w9h0" d="M 5047 3674 c -4 -4 -7 -94 -7 -200 l 0 -193 -72 -3 -73 -3 0 -30 0 -30 183 -3 183 -2 -3 32 -3 33 -72 3 -73 3 -2 197 -3 197 -25 3 c -14 2 -29 0 -33 -4 z "></path><path id="p1DcOp0TUr" d="M 5334 3671 c -2 -2 -4 -107 -4 -233 l 0 -228 170 0 c 149 0 171 2 177 16 3 9 2 24 -4 33 -9 13 -31 16 -142 15 l -132 -1 3 66 3 66 120 0 120 0 3 33 3 32 -125 0 -126 0 0 70 0 70 141 0 140 0 -3 31 -3 31 -168 2 c -93 0 -171 -1 -173 -3 z "></path><path id="pALHT6nng" d="M 5767 3674 c -4 -4 -7 -110 -7 -236 l 0 -228 33 0 c 31 0 41 9 119 108 46 59 104 133 127 165 24 31 44 57 45 57 0 0 1 -73 1 -162 l 0 -163 31 -3 32 -3 5 143 c 3 79 4 184 4 233 -2 89 -2 90 -28 93 -21 3 -34 -8 -80 -70 -29 -40 -90 -118 -134 -172 l -80 -99 -5 169 -5 169 -25 3 c -14 2 -29 0 -33 -4 z "></path><path id="pJogDMRLz" d="M 6380 3480 l 0 -200 -75 0 -75 0 0 -35 0 -35 186 0 185 0 -3 33 -3 32 -66 3 -66 3 -6 136 c -4 75 -7 165 -7 200 l 0 63 -35 0 -35 0 0 -200 z "></path><path id="pC6bOptUo" d="M7315.694504663496 3441.177579018269 C 7315.694504663496 3572.0570217878003 7209.595753105589 3678.1557733457075 7078.716310336058 3678.1557733457075 6947.836867566527 3678.1557733457075 6841.73811600862 3572.0570217878003 6841.73811600862 3441.177579018269 6841.73811600862 3310.298136248738 6947.836867566527 3204.199384690831 7078.716310336058 3204.199384690831 7209.595753105589 3204.199384690831 7315.694504663496 3310.298136248738 7315.694504663496 3441.177579018269 Z M6990.0 3664.0  M7247.757562363348 3443.119930207431 C 7247.757562363348 3350.2999696326556 7172.512117179267 3275.0545244485747 7079.692156604492 3275.0545244485747 6986.872196029717 3275.0545244485747 6911.626750845636 3350.2999696326556 6911.626750845636 3443.119930207431 6911.626750845636 3535.9398907822065 6986.872196029717 3611.1853359662873 7079.692156604492 3611.1853359662873 7172.512117179267 3611.1853359662873 7247.757562363348 3535.9398907822065 7247.757562363348 3443.119930207431 Z M7133.0 3606.0 "></path><path id="pXwBASlNT" d="M 7407 3674 c -4 -4 -7 -110 -7 -236 l 0 -228 35 0 c 33 0 40 7 142 142 60 78 118 153 130 167 l 22 26 -2 -165 -2 -165 32 -3 31 -3 4 228 c 2 125 0 232 -4 237 -3 5 -17 6 -30 2 -21 -6 -58 -50 -223 -268 l -60 -79 -5 173 -5 173 -25 3 c -14 2 -29 0 -33 -4 z "></path><path id="pbf67PRv3" d="M 8097 3673 c -9 -8 -9 -286 -1 -386 l 7 -77 115 0 c 126 0 166 13 207 68 30 40 28 136 -3 180 -34 47 -68 60 -171 68 l -91 7 0 73 0 74 -28 0 c -16 0 -32 -3 -35 -7 z  m 253 -239 c 12 -12 24 -39 27 -61 4 -32 1 -45 -19 -68 -23 -26 -29 -28 -109 -29 l -84 -1 -3 94 -3 93 85 -3 c 71 -3 89 -8 106 -25 z "></path><path id="p16t94e5Yc" d="M 8533 3664 c -3 -9 -6 -115 -7 -237 l -1 -220 134 2 c 149 3 174 10 214 63 57 77 35 164 -55 210 l -26 14 60 88 c 33 48 57 90 54 93 -3 3 -23 2 -45 -3 -34 -8 -46 -19 -93 -89 l -53 -80 -60 0 -60 0 -3 88 c -3 85 -3 87 -28 87 -13 0 -27 -7 -31 -16 z  m 256 -239 c 46 -23 56 -84 22 -126 -17 -22 -28 -24 -120 -27 l -101 -4 0 86 0 86 85 0 c 56 0 96 -5 114 -15 z "></path><path id="pxmDULJ36" d="M9430.126823796763 3442.3604436582877 C 9430.126823796763 3572.7097049458466 9324.457869250105 3678.378659492503 9194.108607962547 3678.378659492503 9063.75934667499 3678.378659492503 8958.090392128332 3572.7097049458466 8958.090392128332 3442.3604436582877 8958.090392128332 3312.011182370729 9063.75934667499 3206.3422278240723 9194.108607962547 3206.3422278240723 9324.457869250105 3206.3422278240723 9430.126823796763 3312.011182370729 9430.126823796763 3442.3604436582877 Z M9092.0 3659.0  M9358.453512708833 3444.3571426845765 C 9358.453512708833 3352.9706220292287 9284.37010017607 3278.8872094964663 9192.983579520722 3278.8872094964663 9101.597058865374 3278.8872094964663 9027.51364633261 3352.9706220292287 9027.51364633261 3444.3571426845765 9027.51364633261 3535.7436633399243 9101.597058865374 3609.8270758726867 9192.983579520722 3609.8270758726867 9284.37010017607 3609.8270758726867 9358.453512708833 3535.7436633399243 9358.453512708833 3444.3571426845765 Z M9284.0 3586.0 "></path><path id="p9AOiFQxg" d="M 9617 3673 c -4 -3 -7 -96 -7 -206 l 0 -200 -62 5 c -79 6 -88 3 -88 -33 l 0 -29 186 0 185 0 -3 33 -3 32 -70 5 -70 5 -3 198 -2 197 -29 0 c -15 0 -31 -3 -34 -7 z "></path><path id="pmipARVoI" d="M10334.942955005461 3442.7815514410204 C 10334.942955005461 3573.5949453900275 10228.897746595747 3679.6401537997426 10098.08435264674 3679.6401537997426 9967.270958697733 3679.6401537997426 9861.225750288018 3573.5949453900275 9861.225750288018 3442.7815514410204 9861.225750288018 3311.9681574920132 9967.270958697733 3205.922949082298 10098.08435264674 3205.922949082298 10228.897746595747 3205.922949082298 10334.942955005461 3311.9681574920132 10334.942955005461 3442.7815514410204 Z M9989.0 3657.0  M10265.63312796388 3442.2456863170523 C 10265.63312796388 3349.94753168338 10190.81069007365 3275.1250937931495 10098.512535439977 3275.1250937931495 10006.214380806305 3275.1250937931495 9931.391942916074 3349.94753168338 9931.391942916074 3442.2456863170523 9931.391942916074 3534.5438409507246 10006.214380806305 3609.366278840955 10098.512535439977 3609.366278840955 10190.81069007365 3609.366278840955 10265.63312796388 3534.5438409507246 10265.63312796388 3442.2456863170523 Z M10140.0 3610.0 "></path><path id="pLFHSRCxn" d="M 10540 3667 c -87 -28 -160 -154 -146 -255 15 -110 103 -200 205 -210 70 -6 111 3 165 40 l 48 31 -26 25 c -23 24 -27 25 -43 10 -84 -74 -193 -57 -249 37 -23 40 -26 54 -22 110 5 77 25 110 88 143 66 33 100 28 187 -28 21 -13 25 -13 45 7 19 19 20 24 7 39 -8 9 -36 28 -64 40 -55 26 -134 30 -195 11 z "></path><path id="pHnvAVLCd" d="M11322.076592497406 3441.101663401741 C 11322.076592497406 3571.720266452265 11216.189293310917 3677.607565638755 11085.570690260392 3677.607565638755 10954.952087209867 3677.607565638755 10849.06478802338 3571.720266452265 10849.06478802338 3441.101663401741 10849.06478802338 3310.483060351217 10954.952087209867 3204.595761164727 11085.570690260392 3204.595761164727 11216.189293310917 3204.595761164727 11322.076592497406 3310.483060351217 11322.076592497406 3441.101663401741 Z M10973.0 3650.0  M11253.048231666467 3441.859819093102 C 11253.048231666467 3349.4198508159343 11178.110831103639 3274.4824502531064 11085.670862826471 3274.4824502531064 10993.230894549304 3274.4824502531064 10918.293493986475 3349.4198508159343 10918.293493986475 3441.859819093102 10918.293493986475 3534.2997873702698 10993.230894549304 3609.2371879330976 11085.670862826471 3609.2371879330976 11178.110831103639 3609.2371879330976 11253.048231666467 3534.2997873702698 11253.048231666467 3441.859819093102 Z M11175.0 3585.0 "></path><path id="pu8ohH60K" d="M 6690 3441 l 0 -231 29 0 29 0 7 93 c 4 50 5 153 3 227 l -3 135 -32 3 -33 3 0 -230 z "></path><path id="pARqqYlta" d="M 11400 3440 l 0 -230 35 0 35 0 0 200 0 200 125 0 125 0 0 30 0 30 -160 0 -160 0 0 -230 z "></path><path id="pWQddAGS6" d="M 3895 2561 c -233 -41 -429 -133 -584 -273 -22 -21 -41 -41 -41 -44 0 -7 212 -255 233 -273 13 -10 30 -1 104 55 166 127 328 185 518 187 132 2 197 -17 255 -72 37 -35 60 -89 60 -141 -1 -43 -35 -105 -78 -138 -61 -49 -129 -75 -384 -147 -250 -71 -363 -118 -444 -183 -69 -55 -129 -147 -160 -249 -24 -76 -26 -94 -21 -196 11 -237 118 -403 319 -501 135 -66 204 -80 383 -80 218 0 363 33 540 122 62 31 215 129 215 138 0 9 -202 309 -210 312 -5 2 -29 -10 -54 -27 -68 -47 -195 -108 -298 -142 -79 -27 -108 -32 -198 -33 -122 -1 -166 11 -221 61 -86 78 -76 222 21 292 47 34 133 64 330 115 274 71 407 133 515 241 117 116 161 236 153 415 -6 118 -33 206 -93 296 -92 139 -257 238 -459 273 -89 16 -287 12 -401 -8 z "></path><path id="pQMXSnY5k" d="M 5140 2045 l 0 -505 463 0 c 273 0 488 -4 526 -11 89 -14 151 -43 199 -92 61 -62 86 -126 86 -218 1 -65 -4 -84 -29 -135 -35 -68 -92 -115 -168 -141 -46 -15 -113 -17 -564 -21 l -513 -3 0 -195 0 -195 563 3 c 542 4 565 5 642 26 303 83 471 281 500 587 9 86 -9 207 -41 294 -31 82 -102 189 -163 243 -60 54 -163 115 -218 131 -24 6 -43 14 -43 18 0 4 78 115 173 246 96 131 195 270 222 308 26 39 64 91 82 118 l 35 47 -249 0 -248 0 -116 -158 c -63 -86 -169 -232 -235 -324 l -119 -168 -182 0 -183 0 0 325 0 325 -210 0 -210 0 0 -505 z "></path></g></g><g id="l64Q2MZWohVWWAzj2TCzqoe" fill="rgb(238,108,24)" style="transform: none;"><g style="transform: none;"><path id="pSxXVAPvj" d="M 7154 2535 c -2 -5 -3 -458 -2 -1005 l 3 -995 510 0 c 502 0 511 0 595 23 140 38 239 92 322 175 113 112 175 240 198 407 43 315 -128 635 -406 761 -107 49 -211 69 -416 80 -104 6 -231 9 -283 7 l -95 -3 -2 280 -3 280 -209 0 c -135 1 -210 -3 -212 -10 z  m 999 -954 c 129 -51 208 -172 210 -321 2 -109 -22 -171 -93 -241 -47 -47 -68 -61 -124 -78 -61 -19 -93 -21 -317 -21 l -249 0 0 346 0 345 258 -3 c 240 -3 261 -5 315 -27 z "></path><path id="pyXVLQ6eV" d="M 5481 1412 c -34 -6 -96 -48 -111 -76 -16 -31 -24 -33 -210 -51 -85 -9 -219 -22 -298 -30 -143 -14 -220 -34 -137 -35 38 0 361 -22 542 -36 82 -7 82 -7 101 -43 23 -45 84 -81 137 -81 58 1 125 38 152 86 72 126 -36 290 -176 266 z "></path></g></g></svg>